<?xml version="1.0" encoding="UTF-8" standalone="no"?>
<!DOCTYPE svg PUBLIC "-//W3C//DTD SVG 1.1//EN" "http://www.w3.org/Graphics/SVG/1.1/DTD/svg11.dtd">
<svg width="100%" height="100%" viewBox="0 0 16 16" version="1.1" xmlns="http://www.w3.org/2000/svg" xmlns:xlink="http://www.w3.org/1999/xlink" xml:space="preserve" xmlns:serif="http://www.serif.com/" style="fill-rule:evenodd;clip-rule:evenodd;stroke-linejoin:round;stroke-miterlimit:1.41421;">
    <path id="icon_x2F_16px_x2F_medium-priority-" d="M3,4L13,4C13.6,4 14,4.4 14,5C14,5.6 13.6,6 13,6L3,6C2.4,6 2,5.6 2,5C2,4.4 2.4,4 3,4ZM3,10L13,10C13.6,10 14,10.4 14,11C14,11.6 13.6,12 13,12L3,12C2.4,12 2,11.6 2,11C2,10.4 2.4,10 3,10Z" style="fill:rgb(201,201,201);fill-rule:nonzero;"/>
</svg>
